<svg xmlns="http://www.w3.org/2000/svg" xmlns:xlink="http://www.w3.org/1999/xlink" width="1024" zoomAndPan="magnify" viewBox="0 0 768 767.999994" height="1024" preserveAspectRatio="xMidYMid meet" version="1.0"><path fill="#1d71b8" d="M 332.886719 96.757812 C 23.699219 129.78125 10.007812 522.671875 312.230469 569.773438 C 326.226562 571.953125 337.890625 575.058594 337.890625 576.605469 C 337.890625 578.148438 330.828125 590.769531 322.097656 604.765625 C 305.886719 630.757812 303.785156 638.359375 309.777344 649.421875 C 315.859375 660.667969 329.222656 660.636719 363.210938 649.28125 C 429.539062 627.121094 502.28125 586.039062 548.175781 544.816406 C 590.804688 506.527344 624.933594 453.136719 638.910156 402.804688 C 691.117188 215.136719 517.117188 77.074219 332.871094 96.757812 Z M 456.527344 145.058594 C 671.859375 218.113281 669.195312 471.085938 410.875 591.230469 C 358.21875 615.75 359.167969 615.824219 374.257812 587.101562 C 381.433594 573.441406 386.6875 558.875 386.042969 554.445312 C 384.957031 547 381.882812 546.019531 341.550781 540.28125 C 317.558594 536.863281 285.886719 529.996094 270.566406 524.894531 C 237.574219 513.894531 196.828125 487.65625 176.734375 464.464844 C 149.394531 432.910156 127.9375 376.476562 127.9375 336.128906 C 127.9375 314.058594 137.179688 275.8125 148.152344 252.484375 C 175.167969 195.070312 236.953125 151.289062 313.5625 135.09375 C 321.980469 133.320312 350.214844 132.316406 376.210938 132.863281 C 418.535156 133.761719 427.019531 135.046875 456.527344 145.058594 Z M 456.527344 145.058594 " fill-opacity="1" fill-rule="nonzero"/><path fill="#1d71b8" d="M 348.941406 323.15625 C 350.574219 343.820312 358.160156 356.523438 376.175781 368.6875 C 391.136719 378.789062 418.503906 379.3125 434.164062 369.882812 C 449.996094 360.308594 461.523438 334.820312 459.210938 314.492188 C 454.589844 273.835938 408.34375 250.480469 375.832031 272.386719 C 380.878906 272.386719 345.859375 283.332031 348.941406 323.15625 Z M 425.171875 321.164062 C 425.171875 330.488281 414.675781 344.820312 407.84375 344.820312 C 399.839844 344.820312 387.171875 336.53125 383.910156 329.15625 C 381.128906 322.886719 382.085938 319.496094 389.164062 310.496094 C 405.6875 289.527344 425.207031 303.867188 425.207031 321.164062 Z M 425.171875 321.164062 " fill-opacity="1" fill-rule="nonzero"/><path fill="#1d71b8" d="M 496.019531 286.667969 C 484.09375 299.664062 481.191406 305.46875 481.191406 316.160156 C 481.191406 353.820312 528.378906 378.195312 560.480469 357.121094 C 589.328125 338.207031 589.144531 292.023438 560.152344 273.027344 C 549.820312 266.265625 527.675781 263.394531 517.828125 267.550781 C 518.882812 267.550781 513.363281 267.761719 496.019531 286.667969 Z M 547.84375 315.164062 C 547.84375 329.828125 529.042969 336.964844 519.699219 325.789062 C 516.296875 321.703125 516.9375 318.792969 523.074219 310.128906 C 531.109375 298.796875 536.757812 296.984375 543.511719 303.589844 C 544.214844 303.605469 547.84375 309.515625 547.84375 315.164062 Z M 547.84375 315.164062 " fill-opacity="1" fill-rule="nonzero"/><path fill="#1d71b8" d="M 239.90625 279.058594 C 217.910156 290.453125 207.265625 311.15625 209.1875 338.820312 C 211.335938 369.816406 229.476562 389.753906 258.574219 393.085938 C 279.230469 395.457031 289.128906 392.84375 302.558594 381.457031 C 326.886719 360.839844 334.847656 322.242188 319.464844 299.5 C 302.742188 274.792969 266.234375 265.414062 239.90625 279.066406 Z M 285.183594 349.488281 C 273.085938 364.820312 255.609375 363.816406 244.710938 347.15625 C 228.152344 321.816406 262.808594 295.96875 286.210938 316.203125 C 289.269531 316.203125 298.03125 333.203125 285.183594 349.488281 Z M 285.183594 349.488281 " fill-opacity="1" fill-rule="nonzero"/></svg>